<svg xmlns="http://www.w3.org/2000/svg" width="13" height="13" viewBox="0 0 13 13" fill="none">
    <path d="M5.65715 0.707107C6.04768 0.316582 6.68084 0.316582 7.07136 0.707107L8.48558 2.12132C8.8761 2.51184 8.8761 3.14501 8.48558 3.53553L3.53583 8.48528C3.14531 8.87581 2.51214 8.87581 2.12162 8.48528L0.707404 7.07107C0.316879 6.68054 0.316879 6.04738 0.707404 5.65685L5.65715 0.707107Z" fill="#7A7A7A"/>
    <path d="M0.707107 7.07088C0.316582 6.68035 0.316582 6.04719 0.707107 5.65666L2.12132 4.24245C2.51184 3.85192 3.14501 3.85192 3.53553 4.24245L8.48528 9.1922C8.87581 9.58272 8.87581 10.2159 8.48528 10.6064L7.07107 12.0206C6.68054 12.4111 6.04738 12.4111 5.65685 12.0206L0.707107 7.07088Z" fill="#7A7A7A"/>
</svg>